<svg id="Layer_1" enable-background="new 0 0 512 512" height="512" viewBox="0 0 512 512" width="512" xmlns="http://www.w3.org/2000/svg"><g><g><path d="m494.403 299.948c-.286-.139-25.049-14.101-58.536-90.421l14.743-14.743c6.253-6.253 9.697-14.592 9.697-23.479s-3.444-17.226-9.697-23.478c-3.262-3.262-7.092-5.76-11.27-7.403l11.271-11.271c6.253-6.253 9.697-14.591 9.696-23.479 0-8.887-3.444-17.225-9.697-23.479-3.516-3.515-7.629-6.076-12.017-7.682 3.455-5.322 5.308-11.544 5.307-18.063 0-8.887-3.444-17.225-9.697-23.478s-14.591-9.698-23.479-9.698c-6.516 0-12.738 1.853-18.059 5.305-1.633-4.468-4.23-8.56-7.686-12.014-6.253-6.253-14.591-9.698-23.478-9.698 0 0 0 0-.001 0-8.887 0-17.225 3.444-23.479 9.697l-6.001 6.001c-17.993-16.067-30.885-21.392-32.092-21.868-2.836-1.118-6.027-.882-8.668.643-9.341 5.393-11.196 13.945-12.425 19.605-1.037 4.78-1.44 5.695-2.879 6.525-1.439.831-2.435.723-7.092-.769-5.515-1.766-13.85-4.435-23.19.958-9.341 5.393-11.196 13.945-12.425 19.605-1.037 4.78-1.44 5.695-2.878 6.525-1.44.831-2.432.723-7.093-.769-5.514-1.766-13.848-4.437-23.19.958-9.341 5.393-11.196 13.945-12.424 19.605-1.038 4.78-1.441 5.695-2.88 6.525-1.438.831-2.434.723-7.092-.769-5.517-1.766-13.85-4.436-23.19.958s-11.196 13.945-12.425 19.605c-1.037 4.78-1.44 5.695-2.879 6.525-1.438.83-2.432.723-7.092-.769-5.517-1.766-13.852-4.434-23.19.958-9.341 5.393-11.196 13.945-12.425 19.604-1.037 4.781-1.44 5.695-2.88 6.526-1.438.83-2.432.723-7.091-.769-5.514-1.767-13.849-4.436-23.19.958-2.394 1.382-4.106 3.694-4.736 6.384-.629 2.691-.115 5.524 1.416 7.823.264.396 25.662 38.817 45.232 92.718-5.844 5.16-9.859 12.339-10.949 20.435l-79.412 79.413c-3.905 3.905-3.905 10.237 0 14.143l115.526 115.527c1.953 1.953 4.512 2.929 7.071 2.929s5.118-.977 7.071-2.929l31.438-31.437 10.815 10.24v53.819c0 5.523 4.478 10 10 10h185.63c5.522 0 10-4.477 10-10v-108.387c6.029-5.256 7.528-12.072 8.563-16.841 1.038-4.78 1.441-5.694 2.88-6.525 1.438-.831 2.435-.723 7.091.769 5.517 1.767 13.851 4.436 23.191-.958s11.196-13.945 12.425-19.605c1.037-4.78 1.44-5.695 2.879-6.525 1.438-.83 2.431-.723 7.091.769 5.517 1.767 13.851 4.435 23.191-.958 9.341-5.393 11.196-13.945 12.424-19.604 1.038-4.78 1.441-5.695 2.88-6.525 3.207-1.852 5.128-5.324 4.993-9.025s-2.303-7.025-5.637-8.637zm-54.096-128.643c0 3.544-1.364 6.86-3.84 9.336l-8.952 8.952c-3.362-8.386-6.794-17.395-10.281-27.063l.561-.561c2.476-2.476 5.791-3.84 9.336-3.84s6.86 1.364 9.336 3.84c2.477 2.476 3.84 5.792 3.84 9.336zm-3.839-74.967c2.477 2.476 3.84 5.792 3.84 9.337 0 3.544-1.363 6.86-3.839 9.335l-26.961 26.961c-3.694-9.239-7.485-17.897-11.334-26.011l19.617-19.618c.002-.002.003-.003.005-.005 5.149-5.146 13.526-5.147 18.672.001zm-35.079-49.223c2.476-2.476 5.791-3.839 9.336-3.839s6.86 1.364 9.336 3.84c2.477 2.476 3.84 5.792 3.84 9.336s-1.363 6.86-3.839 9.335l-16.408 16.408c-.002.002-.003.003-.005.005l-14.984 14.984c-4.609-8.524-9.255-16.323-13.877-23.469l10.188-10.188c.002-.002.003-.003.005-.005zm-39.886-20.246c3.545 0 6.86 1.363 9.336 3.84 2.477 2.476 3.84 5.792 3.84 9.336 0 3.537-1.357 6.845-3.823 9.319l-.017.017c-.002.002-.003.003-.005.005l-7.641 7.642c-5.809-7.771-11.494-14.545-16.925-20.42l5.899-5.899c2.475-2.477 5.792-3.84 9.336-3.84zm-224.024 421.296-101.384-101.385 57.892-57.892v51.907c0 14.674 5.633 26.214 17.72 36.288l49.752 47.103zm234.954 43.835h-165.63v-48.123c0-2.747-1.13-5.373-3.125-7.262l-78.46-74.282c-.165-.156-.336-.307-.511-.452-7.715-6.365-10.721-12.277-10.721-21.087v-76.049c0-7.281 5.924-13.204 13.204-13.204 7.026 0 12.712 5.955 13.224 13.852.744 11.453 2.541 29.01 4.729 40.492.21 1.101.603 2.158 1.163 3.128 6.246 10.82 23.476 16.059 47.321 23.31l.267.081c3.031.923 6.318.353 8.863-1.533s4.046-4.867 4.046-8.034v-179.331c0-7.28 5.924-13.204 13.204-13.204s13.203 5.923 13.203 13.204v60.313c0 5.523 4.478 10 10 10s10-4.477 10-10v-60.313-23.205c0-7.28 5.924-13.204 13.204-13.204s13.203 5.923 13.203 13.204v23.204 105.313c0 5.523 4.478 10 10 10s10-4.477 10-10v-105.312c0-7.28 5.924-13.203 13.204-13.203s13.204 5.923 13.204 13.203v46.39c0 .006-.001.013-.001.019v58.904c0 5.523 4.478 10 10 10s10-4.477 10-10v-58.885c0-.006.001-.013.001-.019 0-7.28 5.923-13.204 13.203-13.204s13.204 5.923 13.204 13.204v302.085zm100.191-172.106c-1.038 4.78-1.441 5.694-2.88 6.525-1.438.83-2.434.723-7.092-.769-5.517-1.767-13.849-4.435-23.19.958s-11.196 13.945-12.425 19.605c-1.037 4.78-1.44 5.695-2.879 6.525-1.439.832-2.436.722-7.092-.769-5.516-1.766-13.849-4.436-23.19.958-.506.292-.979.597-1.442.906v-163.918c0-18.309-14.896-33.204-33.204-33.204-4.688 0-9.155.978-13.203 2.738v-15.944c0-18.308-14.896-33.203-33.204-33.203-4.973 0-9.693 1.098-13.932 3.066-3.197-14.992-16.544-26.271-32.476-26.271s-29.279 11.278-32.476 26.271c-4.239-1.968-8.959-3.066-13.932-3.066-18.309 0-33.204 14.895-33.204 33.204v165.774c-4.77-1.526-9.147-3.024-12.859-4.518-5.899-2.374-8.494-4.099-9.587-5.015-1.763-10.25-3.311-25.287-3.983-35.65-1.204-18.561-15.47-32.557-33.183-32.557-1.223 0-2.43.072-3.62.201-12.612-34.467-27.214-62.371-36.744-78.979 4.794.912 10.565.894 16.784-2.696 9.341-5.393 11.197-13.946 12.425-19.605 1.038-4.78 1.441-5.695 2.88-6.525 1.438-.83 2.431-.723 7.091.769 5.516 1.767 13.85 4.435 23.191-.958s11.196-13.945 12.425-19.605c1.037-4.78 1.44-5.695 2.879-6.525 1.438-.83 2.432-.723 7.091.769 5.515 1.766 13.85 4.436 23.191-.958 9.341-5.393 11.196-13.945 12.425-19.605 1.037-4.78 1.44-5.695 2.879-6.525 1.438-.831 2.436-.722 7.091.769 5.517 1.767 13.85 4.435 23.191-.958s11.196-13.945 12.425-19.605c1.037-4.78 1.44-5.695 2.879-6.525 1.438-.831 2.434-.723 7.092.769 5.514 1.765 13.848 4.436 23.19-.958 9.341-5.393 11.196-13.945 12.425-19.605.212-.98.398-1.798.572-2.486 6.37 3.826 16.973 11.256 29.496 24.215 18.993 19.655 46.377 56.365 68.973 119.632 33.46 93.688 63.053 130.295 78.117 143.959-1.606 3.351-2.331 6.697-2.915 9.389z"/><path d="m243.211 238.819h-.007c-5.522 0-9.996 4.477-9.996 10s4.48 10 10.003 10 10-4.477 10-10-4.478-10-10-10z"/></g></g></svg>