<svg id="Capa_1" enable-background="new 0 0 512.134 512.134" height="512" viewBox="0 0 512.134 512.134" width="512" xmlns="http://www.w3.org/2000/svg"><g><path d="m175.045 351.845h119.385c4.143 0 7.5-3.358 7.5-7.5s-3.357-7.5-7.5-7.5h-119.385c-9.747 0-17.678 7.93-17.678 17.678v26.905c0 9.748 7.931 17.678 17.678 17.678h162.045c9.747 0 17.678-7.93 17.678-17.678v-26.905c0-9.748-7.931-17.678-17.678-17.678h-10.696c-4.143 0-7.5 3.358-7.5 7.5s3.357 7.5 7.5 7.5h10.696c1.477 0 2.678 1.201 2.678 2.678v26.905c0 1.477-1.201 2.678-2.678 2.678h-162.045c-1.477 0-2.678-1.201-2.678-2.678v-26.905c0-1.477 1.201-2.678 2.678-2.678z"/><path d="m421.473 245.851c-3.425-3.877-8.169-6.304-13.262-6.847v-36.026c0-4.142-3.357-7.5-7.5-7.5s-7.5 3.358-7.5 7.5v35.91h-33.381v-83.497c0-1.521 1.236-2.757 2.757-2.757h27.866c1.521 0 2.758 1.237 2.758 2.757v15.625c0 4.142 3.357 7.5 7.5 7.5s7.5-3.358 7.5-7.5v-15.625c0-9.792-7.966-17.757-17.758-17.757h-27.866c-.94 0-1.856.095-2.757.236v-71.573c0-9.792-7.966-17.757-17.758-17.757h-27.867c-.94 0-1.856.095-2.757.236v-31.018c.001-9.792-7.965-17.758-17.757-17.758h-27.866c-9.792 0-17.758 7.966-17.758 17.758v76.643c-.901-.141-1.818-.236-2.758-.236h-27.866c-.94 0-1.857.095-2.758.236v-36.908c0-9.792-7.966-17.757-17.757-17.757h-27.867c-9.792 0-17.758 7.966-17.758 17.757v15.855c-.901-.141-1.817-.236-2.757-.236h-27.867c-9.791 0-17.757 7.966-17.757 17.758v148.268c-4.711.737-9.062 3.092-12.262 6.713-3.908 4.424-5.732 10.322-5.004 16.18l4.237 34.103c.511 4.11 4.265 7.03 8.367 6.518 4.11-.511 7.028-4.257 6.518-8.368l-4.237-34.104c-.271-2.181.736-3.692 1.361-4.399s2.001-1.894 4.199-1.894h89.667c7.84 26.617 32.409 45.067 60.298 45.067s52.458-18.451 60.298-45.067h89.667c2.198 0 3.574 1.187 4.199 1.894s1.632 2.219 1.361 4.4l-26.643 214.44-16.092-21.335c-5.021-6.657-12.997-10.631-21.335-10.631h-182.91c-8.338 0-16.313 3.974-21.335 10.631l-16.092 21.334-18.456-148.553c-.511-4.111-4.257-7.033-8.367-6.518-4.11.511-7.028 4.257-6.518 8.368l20.215 162.708c1.522 12.262 11.989 21.508 24.345 21.508h235.328c12.355 0 22.822-9.247 24.345-21.508l28.401-228.595c.729-5.857-1.095-11.755-5.004-16.179zm-300.794-157.739h27.867c1.521 0 2.757 1.237 2.757 2.758v148.018h-33.381v-148.018c.001-1.521 1.237-2.758 2.757-2.758zm45.624 150.776v-181.395c0-1.521 1.237-2.757 2.758-2.757h27.867c1.521 0 2.757 1.237 2.757 2.757v181.629c-.789-.149-33.382-.234-33.382-.234zm48.382 21.25v-148.217c0-1.521 1.237-2.757 2.758-2.757h27.866c1.521 0 2.758 1.237 2.758 2.757v171.36c-14.055-2.383-26.287-10.953-33.382-23.143zm48.382 23.293v-265.673c0-1.521 1.237-2.758 2.758-2.758h27.866c1.521 0 2.758 1.237 2.758 2.758v244.022c-7.39 11.595-19.553 19.605-33.382 21.651zm48.382-44.08v-173.054c0-1.521 1.236-2.757 2.757-2.757h27.867c1.521 0 2.758 1.237 2.758 2.757v172.591s-32.284.164-33.382.463zm62.282 257.783h-235.328c-2.772 0-5.294-1.203-7.049-3.132l23.897-31.682c2.203-2.92 5.702-4.664 9.36-4.664h182.912c3.658 0 7.157 1.744 9.36 4.664l23.897 31.683c-1.754 1.929-4.277 3.131-7.049 3.131z"/></g></svg>